<?xml version="1.0" encoding="utf-8"?>
<!-- Generator: Adobe Illustrator 25.4.1, SVG Export Plug-In . SVG Version: 6.00 Build 0)  -->
<svg version="1.1" xmlns="http://www.w3.org/2000/svg" xmlns:xlink="http://www.w3.org/1999/xlink" x="0px" y="0px"
	 viewBox="0 0 1666 1054.1" style="enable-background:new 0 0 1666 1054.1;" xml:space="preserve">
<style type="text/css">
	.st0{fill:url(#SVGID_1_);}
	.st1{fill:url(#SVGID_00000175304797632577722820000007324656050486946961_);}
	.st2{fill:url(#SVGID_00000123405207250635860680000000579215578156113840_);}
	.st3{fill:url(#SVGID_00000137115809840939658510000012518111197038873266_);}
	.st4{fill:url(#SVGID_00000014623226555268669290000004073594081318491015_);}
	.st5{fill:url(#SVGID_00000124124710082628003030000000307227186300983189_);}
	.st6{fill:url(#SVGID_00000102524852857134715960000007545395828443400116_);}
	.st7{fill:url(#SVGID_00000016769780935533131690000016234255934913707696_);}
	.st8{fill:url(#SVGID_00000050639202033377394620000013292500696719152023_);}
	.st9{fill:url(#SVGID_00000061469048655082657750000015056282387957279152_);}
	.st10{fill:url(#SVGID_00000130611932982746254820000016612927384325041302_);}
	.st11{fill:url(#SVGID_00000103248574796920412860000002136570999412153245_);}
	.st12{fill:url(#SVGID_00000121263810982817817180000016954671802670137021_);}
	.st13{fill:url(#SVGID_00000108287357197423090010000017481532867055306428_);}
	.st14{fill:url(#SVGID_00000049927352957506929220000001601869358562526647_);}
	.st15{fill:url(#SVGID_00000011030009343610483380000001943493324058030982_);}
	.st16{fill:url(#SVGID_00000065789149217487950170000008924595831756043147_);}
	.st17{fill:url(#SVGID_00000118384177661804571400000011856792444147876799_);}
	.st18{fill:url(#SVGID_00000129182559393674601960000018240127053603699390_);}
	.st19{fill:#E8E2D0;}
</style>
<g id="Calque_1">
	<g>
		<g>
			
				<image style="overflow:visible;" width="1430" height="877" xlink:href="./link/3C5483F9.png"  transform="matrix(1 0 0 1 75 148.0566)">
			</image>
		</g>
		<g>
			<image style="overflow:visible;" width="819" height="971" xlink:href="./link/3C5483FB.png"  transform="matrix(1 0 0 1 381 60.0566)">
			</image>
		</g>
		<g>
			<g>
				<linearGradient id="SVGID_1_" gradientUnits="userSpaceOnUse" x1="471.4855" y1="605.2891" x2="1293.8638" y2="605.2891">
					<stop  offset="0" style="stop-color:#463427"/>
					<stop  offset="0.2" style="stop-color:#CCA92B"/>
					<stop  offset="0.4" style="stop-color:#9B6D39"/>
					<stop  offset="0.6" style="stop-color:#502617"/>
					<stop  offset="0.8" style="stop-color:#C7A12F"/>
					<stop  offset="1" style="stop-color:#332321"/>
				</linearGradient>
				<path class="st0" d="M974.9,659.2l73.5-146.9L988,485.7L872.8,724.9h17C903.7,710,938.4,675.7,974.9,659.2z"/>
				<g>
					
						<image style="overflow:visible;" width="177.8" height="240.9" xlink:href="./link/85839F8B.png"  transform="matrix(1 0 0 1 871.6 484.7494)"/>
				</g>
			</g>
			<g>
				
					<linearGradient id="SVGID_00000109724656846486081060000014701440597465478041_" gradientUnits="userSpaceOnUse" x1="826.7331" y1="706.9896" x2="1016.6555" y2="706.9896">
					<stop  offset="0" style="stop-color:#463427"/>
					<stop  offset="0.2" style="stop-color:#CCA92B"/>
					<stop  offset="0.4" style="stop-color:#9B6D39"/>
					<stop  offset="0.6" style="stop-color:#502617"/>
					<stop  offset="0.8" style="stop-color:#C7A12F"/>
					<stop  offset="1" style="stop-color:#332321"/>
				</linearGradient>
				<path style="fill:url(#SVGID_00000109724656846486081060000014701440597465478041_);" d="M919.4,724.9h22.7l17.9-35.7
					C948.5,697.6,933.4,710,919.4,724.9z"/>
				<g>
					
						<image style="overflow:visible;" width="44.4" height="39" xlink:href="./link/85839F89.png"  transform="matrix(1 0 0 1 917.6596 686.6329)"/>
				</g>
			</g>
			<g>
				
					<linearGradient id="SVGID_00000023257291025763053900000005840561611963073461_" gradientUnits="userSpaceOnUse" x1="457.0807" y1="281.2927" x2="1299.9924" y2="281.2927">
					<stop  offset="0" style="stop-color:#463427"/>
					<stop  offset="0.2" style="stop-color:#CCA92B"/>
					<stop  offset="0.4" style="stop-color:#9B6D39"/>
					<stop  offset="0.6" style="stop-color:#502617"/>
					<stop  offset="0.8" style="stop-color:#C7A12F"/>
					<stop  offset="1" style="stop-color:#332321"/>
				</linearGradient>
				<path style="fill:url(#SVGID_00000023257291025763053900000005840561611963073461_);" d="M1127.1,132.6H453.8L508,240.9
					c19.4,6.9,47.9,26,38.8,77.5L602.5,430l60.2-27.1l-98.4-196.8H1055L1127.1,132.6z"/>
				<g>
					
						<image style="overflow:visible;" width="676.3" height="299.2" xlink:href="./link/85839F8F.png"  transform="matrix(1 0 0 1 452.6012 131.8177)"/>
				</g>
			</g>
			<g>
				<g>
					
						<linearGradient id="SVGID_00000137108776851827254050000006358646547615071883_" gradientUnits="userSpaceOnUse" x1="640.6489" y1="709.7551" x2="1061.4585" y2="709.7551">
						<stop  offset="0" style="stop-color:#463427"/>
						<stop  offset="0.2" style="stop-color:#CCA92B"/>
						<stop  offset="0.4" style="stop-color:#9B6D39"/>
						<stop  offset="0.6" style="stop-color:#502617"/>
						<stop  offset="0.8" style="stop-color:#C7A12F"/>
						<stop  offset="1" style="stop-color:#332321"/>
					</linearGradient>
					<path style="fill:url(#SVGID_00000137108776851827254050000006358646547615071883_);" d="M753.4,724.9h70.3l-15.1-30.2
						C781.8,704.1,762.3,717.8,753.4,724.9z"/>
					<g>
						
							<image style="overflow:visible;" width="73.7" height="31.9" xlink:href="./link/85839F88.png"  transform="matrix(1 0 0 1 751.2028 693.7224)"/>
					</g>
				</g>
				<g>
					
						<linearGradient id="SVGID_00000093136843109805757340000007904212730930796431_" gradientUnits="userSpaceOnUse" x1="491.7872" y1="628.8404" x2="1205.1597" y2="628.8404">
						<stop  offset="0" style="stop-color:#463427"/>
						<stop  offset="0.2" style="stop-color:#CCA92B"/>
						<stop  offset="0.4" style="stop-color:#9B6D39"/>
						<stop  offset="0.6" style="stop-color:#502617"/>
						<stop  offset="0.8" style="stop-color:#C7A12F"/>
						<stop  offset="1" style="stop-color:#332321"/>
					</linearGradient>
					<path style="fill:url(#SVGID_00000093136843109805757340000007904212730930796431_);" d="M802,681.6L735.8,549l-52.8,41.7
						l61.9,117.9C765.6,693.3,788.5,685.3,802,681.6z"/>
					<g>
						
							<image style="overflow:visible;" width="121.1" height="161.9" xlink:href="./link/85839F86.png"  transform="matrix(1 0 0 1 681.9623 547.886)"/>
					</g>
				</g>
			</g>
		</g>
		<g>
			<g>
				<g>
					
						<image style="overflow:visible;" width="223.6" height="121" xlink:href="./link/85839F87.png"  transform="matrix(1 0 0 1 928.5325 262.5494)"/>
				</g>
			</g>
			<g>
				<g>
					
						<image style="overflow:visible;" width="1526.2" height="885.3" xlink:href="./link/85839F97.png"  transform="matrix(1 0 0 1 82.8154 63.9432)"/>
				</g>
			</g>
			<g>
				<g>
					
						<image style="overflow:visible;" width="175.5" height="131.9" xlink:href="./link/85839F99.png"  transform="matrix(1 0 0 1 1169.9137 136.7573)"/>
				</g>
			</g>
			<g>
				<g>
					
						<image style="overflow:visible;" width="41.1" height="36.1" xlink:href="./link/85839F9B.png"  transform="matrix(1 0 0 1 54.8995 926.3328)"/>
				</g>
			</g>
		</g>
		<g>
			<g>
				<g>
					
						<image style="overflow:visible;" width="30.8" height="31.8" xlink:href="./link/4C060F28.png"  transform="matrix(1 0 0 1 751.4109 751.0541)"/>
				</g>
			</g>
			<g>
				<g>
					
						<image style="overflow:visible;" width="24.1" height="18.1" xlink:href="./link/4C060F2F.png"  transform="matrix(1 0 0 1 777.4821 744.9383)"/>
				</g>
			</g>
			<g>
				<g>
					
						<image style="overflow:visible;" width="33.5" height="29.4" xlink:href="./link/4C060F29.png"  transform="matrix(1 0 0 1 782.4263 767.9505)"/>
				</g>
			</g>
			<g>
				<g>
					
						<image style="overflow:visible;" width="14.4" height="6.8" xlink:href="./link/4C060F2B.png"  transform="matrix(1 0 0 1 946.6248 799.4212)"/>
				</g>
			</g>
			<g>
				<g>
					
						<image style="overflow:visible;" width="29.3" height="23.1" xlink:href="./link/4C060F36.png"  transform="matrix(1 0 0 1 929.2794 774.2625)"/>
				</g>
			</g>
			<g>
				
					<linearGradient id="SVGID_00000158006373998680178680000008679825378907865012_" gradientUnits="userSpaceOnUse" x1="791.3953" y1="833.887" x2="799.738" y2="833.887">
					<stop  offset="0" style="stop-color:#463427"/>
					<stop  offset="0.2" style="stop-color:#CCA92B"/>
					<stop  offset="0.4" style="stop-color:#9B6D39"/>
					<stop  offset="0.6" style="stop-color:#502617"/>
					<stop  offset="0.8" style="stop-color:#C7A12F"/>
					<stop  offset="1" style="stop-color:#332321"/>
				</linearGradient>
				<path style="fill:url(#SVGID_00000158006373998680178680000008679825378907865012_);" d="M793.9,834.6l4.5,8.1l1.4-2.4
					l-8.3-15.2C792.5,828.1,793.3,831.4,793.9,834.6z"/>
				<g>
					
						<image style="overflow:visible;" width="8.6" height="18" xlink:href="./link/4C060F37.png"  transform="matrix(1 0 0 1 791.2776 824.9924)"/>
				</g>
			</g>
			<g>
				
					<linearGradient id="SVGID_00000152963364365500391780000014541688221477867160_" gradientUnits="userSpaceOnUse" x1="810.5422" y1="816.2692" x2="814.4202" y2="816.2692">
					<stop  offset="0" style="stop-color:#463427"/>
					<stop  offset="0.2" style="stop-color:#CCA92B"/>
					<stop  offset="0.4" style="stop-color:#9B6D39"/>
					<stop  offset="0.6" style="stop-color:#502617"/>
					<stop  offset="0.8" style="stop-color:#C7A12F"/>
					<stop  offset="1" style="stop-color:#332321"/>
				</linearGradient>
				<path style="fill:url(#SVGID_00000152963364365500391780000014541688221477867160_);" d="M810.5,811.8l2.1,9.6
					c0.6-0.8,1.2-1.5,1.7-2.2l-1.9-8.1L810.5,811.8z"/>
				<g>
					
						<image style="overflow:visible;" width="4.2" height="10.7" xlink:href="./link/4C060F38.png"  transform="matrix(1 0 0 1 810.3956 810.9821)"/>
				</g>
			</g>
			<g>
				
					<linearGradient id="SVGID_00000031905330060063794820000015196966588319294863_" gradientUnits="userSpaceOnUse" x1="850.304" y1="890.9489" x2="902.0818" y2="890.9489">
					<stop  offset="0" style="stop-color:#463427"/>
					<stop  offset="0.2" style="stop-color:#CCA92B"/>
					<stop  offset="0.4" style="stop-color:#9B6D39"/>
					<stop  offset="0.6" style="stop-color:#502617"/>
					<stop  offset="0.8" style="stop-color:#C7A12F"/>
					<stop  offset="1" style="stop-color:#332321"/>
				</linearGradient>
				<path style="fill:url(#SVGID_00000031905330060063794820000015196966588319294863_);" d="M900.4,833.1l-32.9,60.1l11.7-52.6
					c-1,0.5-1.9,0.9-2.8,1.3l-12.7,54.5l-8-53.7c-2.2-2.4-4-6.4-5.1-9.3l10.2,68.8l-10.6,46.6c1.8-2.3,3.6-4.7,5.5-7.1l9.3-39.7
					l37-67C901.4,834.5,900.8,833.9,900.4,833.1z"/>
				<g>
					
						<image style="overflow:visible;" width="52.2" height="117" xlink:href="./link/4C060F3B.png"  transform="matrix(1 0 0 1 850.0581 832.3019)"/>
				</g>
			</g>
			<g>
				
					<linearGradient id="SVGID_00000087397952071999767700000010294192851531361415_" gradientUnits="userSpaceOnUse" x1="889.1824" y1="784.788" x2="912.8806" y2="784.788">
					<stop  offset="0" style="stop-color:#463427"/>
					<stop  offset="0.2" style="stop-color:#CCA92B"/>
					<stop  offset="0.4" style="stop-color:#9B6D39"/>
					<stop  offset="0.6" style="stop-color:#502617"/>
					<stop  offset="0.8" style="stop-color:#C7A12F"/>
					<stop  offset="1" style="stop-color:#332321"/>
				</linearGradient>
				<path style="fill:url(#SVGID_00000087397952071999767700000010294192851531361415_);" d="M912.9,794l-21.4-19.5l-2.3,1.5
					l21.8,19.1C911.5,794.7,912.1,794.3,912.9,794z"/>
				<g>
					
						<image style="overflow:visible;" width="24.1" height="20.9" xlink:href="./link/4C060F39.png"  transform="matrix(1 0 0 1 888.9766 774.3222)"/>
				</g>
			</g>
			<g>
				
					<linearGradient id="SVGID_00000010287581266525797110000012079365818368636069_" gradientUnits="userSpaceOnUse" x1="838.6965" y1="806.2725" x2="908.6077" y2="806.2725">
					<stop  offset="0" style="stop-color:#463427"/>
					<stop  offset="0.2" style="stop-color:#CCA92B"/>
					<stop  offset="0.4" style="stop-color:#9B6D39"/>
					<stop  offset="0.6" style="stop-color:#502617"/>
					<stop  offset="0.8" style="stop-color:#C7A12F"/>
					<stop  offset="1" style="stop-color:#332321"/>
				</linearGradient>
				<path style="fill:url(#SVGID_00000010287581266525797110000012079365818368636069_);" d="M850.8,808.6h33.5l-5.6,23.9
					c1-0.5,1.9-0.9,2.7-1.4l5.1-23h16.8c0.1-0.7,0.3-1.4,0.5-2h-18.5v-6.5h21.5c0.7-1,1.3-1.7,1.8-2.3h-22.3l-3.5-17.2l-2.3,1.4
					l3.7,15.8h-29.3l-5.1,2.3h33.8v6.5h-34.4v-6.2l-2.2,1v5.3h-6.3l-2,2.6h6.7l-0.5,3.2c2.2-0.7,4.4-0.9,6.2-0.8L850.8,808.6z"/>
				<g>
					
						<image style="overflow:visible;" width="70.5" height="52.9" xlink:href="./link/4C060F3F.png"  transform="matrix(1 0 0 1 838.4422 779.848)"/>
				</g>
			</g>
			<g>
				
					<linearGradient id="SVGID_00000013178406483419796120000004506646297223445934_" gradientUnits="userSpaceOnUse" x1="887.0061" y1="865.1483" x2="934.9241" y2="865.1483">
					<stop  offset="0" style="stop-color:#463427"/>
					<stop  offset="0.2" style="stop-color:#CCA92B"/>
					<stop  offset="0.4" style="stop-color:#9B6D39"/>
					<stop  offset="0.6" style="stop-color:#502617"/>
					<stop  offset="0.8" style="stop-color:#C7A12F"/>
					<stop  offset="1" style="stop-color:#332321"/>
				</linearGradient>
				<path style="fill:url(#SVGID_00000013178406483419796120000004506646297223445934_);" d="M931.9,828.8l-40.4,65.4L909,836
					c-0.9,0.1-1.8,0.2-2.5,0.1L887,901.5c5.2-6.7,10.3-13.4,15.3-19.8l32.6-52.8C933.7,829,932.7,828.9,931.9,828.8z"/>
				<g>
					
						<image style="overflow:visible;" width="48.5" height="73.4" xlink:href="./link/4C060F53.png"  transform="matrix(1 0 0 1 886.6932 828.7045)"/>
				</g>
			</g>
			<g>
				
					<linearGradient id="SVGID_00000062165452570188500320000017847823531284446126_" gradientUnits="userSpaceOnUse" x1="854.7063" y1="771.2681" x2="886.3743" y2="771.2681">
					<stop  offset="0" style="stop-color:#463427"/>
					<stop  offset="0.2" style="stop-color:#CCA92B"/>
					<stop  offset="0.4" style="stop-color:#9B6D39"/>
					<stop  offset="0.6" style="stop-color:#502617"/>
					<stop  offset="0.8" style="stop-color:#C7A12F"/>
					<stop  offset="1" style="stop-color:#332321"/>
				</linearGradient>
				<polygon style="fill:url(#SVGID_00000062165452570188500320000017847823531284446126_);" points="854.7,788.5 854.7,788.5 
					864.9,782.7 877.5,768.3 878.8,774 881.3,772.5 880.4,768.3 883.6,771 886,769.5 880,764.1 886.4,754 				"/>
				<g>
					
						<image style="overflow:visible;" width="31.9" height="34.7" xlink:href="./link/4C060F5D.png"  transform="matrix(1 0 0 1 854.6057 753.9272)"/>
				</g>
			</g>
			<g>
				
					<linearGradient id="SVGID_00000115483011316720984390000014142984889949181319_" gradientUnits="userSpaceOnUse" x1="781.7747" y1="889.314" x2="847.3186" y2="889.314">
					<stop  offset="0" style="stop-color:#463427"/>
					<stop  offset="0.2" style="stop-color:#CCA92B"/>
					<stop  offset="0.4" style="stop-color:#9B6D39"/>
					<stop  offset="0.6" style="stop-color:#502617"/>
					<stop  offset="0.8" style="stop-color:#C7A12F"/>
					<stop  offset="1" style="stop-color:#332321"/>
				</linearGradient>
				<path style="fill:url(#SVGID_00000115483011316720984390000014142984889949181319_);" d="M843.6,820.5l-11.2,75.8l-13.2-56.5
					l-2,2l11.4,51.3l-21.8-39.7l-1.7,1.8l25.8,46.9l12.7,54.4l-34.5-54.5l-11.6-38.8c-1,0.1-1.8-0.1-2.5-0.4l9.5,31.5l-16.5-26.6
					c-0.6,0.8-1.1,1.5-1.7,2.2l8.2,13.3l-9.5-11.9c-0.6,0.6-1.1,1.2-1.6,1.7l19.5,24.7l19.8,30.9l-40-55c-0.5,0.4-0.9,0.8-1.2,1.2
					l61,83.8c1.3-1.7,2.7-3.4,4.1-5.2l-11.6-51l12-81C846.3,819.9,844.7,820.1,843.6,820.5z"/>
				<g>
					
						<image style="overflow:visible;" width="65.8" height="138.6" xlink:href="./link/4C060F5F.png"  transform="matrix(1 0 0 1 781.611 820.067)"/>
				</g>
			</g>
			<g>
				
					<linearGradient id="SVGID_00000023975186513228851590000009103790104261966772_" gradientUnits="userSpaceOnUse" x1="748.8391" y1="774.6769" x2="878.9348" y2="774.6769">
					<stop  offset="0" style="stop-color:#463427"/>
					<stop  offset="0.2" style="stop-color:#CCA92B"/>
					<stop  offset="0.4" style="stop-color:#9B6D39"/>
					<stop  offset="0.6" style="stop-color:#502617"/>
					<stop  offset="0.8" style="stop-color:#C7A12F"/>
					<stop  offset="1" style="stop-color:#332321"/>
				</linearGradient>
				<path style="fill:url(#SVGID_00000023975186513228851590000009103790104261966772_);" d="M793.1,808.1c2.3-0.7,4.5-1.4,6.7-2
					h-17.7v-6.5h28.8v3.2c0.6-0.2,1.2-0.4,1.7-0.5v-2.6h15.2c0.5-0.6,1.1-1.4,1.9-2.3H812l6.7-29l18.1,20.7c0.8-0.9,1.7-1.9,2.5-2.9
					l-18.1-20.6l26.8-20.4l15.8,12c0.9-1,1.7-1.9,2.6-2.9l-12.5-9.2h21.3c1.4-1.4,2.6-2.6,3.7-3.6l-30.8-0.2l-13,0.1
					c-1.1,1.1-2.6,2.4-4.3,3.7h11.5l-23.9,17.5l-4.6-6.5c-0.8,0.2-1.6,0.4-2.3,0.5l4.8,7.5l-35.2,32l-7.7-27.4l30.8-23.7l3.4,5.3
					c0.5-0.3,1.1-0.6,1.6-1l-3.1-4.4h8.5c1.3-1.3,2.4-2.6,3.2-3.6l-28.1,0.2l-40.8,40.8c1.4,1,2.8,2,4.2,3l13.1-10.4l-10,12.7
					c0.7,0.5,1.4,1.1,2.1,1.6l13.8-18.1l6.7,26.2h-10.2c1,0.8,1.9,1.5,2.8,2.3h8.8v8.5H793.1z M815.8,768.3l-5.9,29h-27.1
					L815.8,768.3z M801.2,745.1L778,762.5l11.5-17.5H801.2z M771.1,768.3l-19.6,14.5l30.6-31.6L771.1,768.3z"/>
				<g>
					<g>
						
							<image style="overflow:visible;" width="130.6" height="67.1" xlink:href="./link/4C060F52.png"  transform="matrix(1 0 0 1 748.647 741.1396)"/>
					</g>
					<g>
						
							<image style="overflow:visible;" width="33.5" height="29.4" xlink:href="./link/4C060F51.png"  transform="matrix(1 0 0 1 782.4263 767.9505)"/>
					</g>
					<g>
						
							<image style="overflow:visible;" width="24.1" height="18.1" xlink:href="./link/4C060F55.png"  transform="matrix(1 0 0 1 777.4821 744.9383)"/>
					</g>
					<g>
						
							<image style="overflow:visible;" width="30.8" height="31.8" xlink:href="./link/4C060F57.png"  transform="matrix(1 0 0 1 751.4109 751.0541)"/>
					</g>
				</g>
			</g>
			<g>
				
					<linearGradient id="SVGID_00000139288676192367860120000009700226192416613249_" gradientUnits="userSpaceOnUse" x1="733.9187" y1="810.087" x2="757.9885" y2="810.087">
					<stop  offset="0" style="stop-color:#463427"/>
					<stop  offset="0.2" style="stop-color:#CCA92B"/>
					<stop  offset="0.4" style="stop-color:#9B6D39"/>
					<stop  offset="0.6" style="stop-color:#502617"/>
					<stop  offset="0.8" style="stop-color:#C7A12F"/>
					<stop  offset="1" style="stop-color:#332321"/>
				</linearGradient>
				<path style="fill:url(#SVGID_00000139288676192367860120000009700226192416613249_);" d="M755.4,819.4c1-0.3,1.9-0.6,2.6-0.8
					l-5.1-8.2c-1.6-1.5-3.4-2.9-5.1-4.3h-12.5v-8.8h-1.4v11.6l10.2,14c0.8-0.2,1.6-0.5,2.4-0.7l-11.2-14.1h13.1L755.4,819.4z"/>
				<g>
					
						<image style="overflow:visible;" width="24.4" height="25.9" xlink:href="./link/4C060F50.png"  transform="matrix(1 0 0 1 733.7937 797.1421)"/>
				</g>
			</g>
			<g>
				
					<linearGradient id="SVGID_00000124859760247236868020000017153785895893637512_" gradientUnits="userSpaceOnUse" x1="893.5374" y1="748.9445" x2="915.6843" y2="748.9445">
					<stop  offset="0" style="stop-color:#463427"/>
					<stop  offset="0.2" style="stop-color:#CCA92B"/>
					<stop  offset="0.4" style="stop-color:#9B6D39"/>
					<stop  offset="0.6" style="stop-color:#502617"/>
					<stop  offset="0.8" style="stop-color:#C7A12F"/>
					<stop  offset="1" style="stop-color:#332321"/>
				</linearGradient>
				<polygon style="fill:url(#SVGID_00000124859760247236868020000017153785895893637512_);" points="908.5,755.2 895,745.1 
					906.7,745.1 912,753 914.3,751.5 914.1,751.1 914.4,751.5 915.7,750.7 906.6,741.6 897.8,741.5 893.5,746.2 906.8,756.3 				"/>
				<g>
					
						<image style="overflow:visible;" width="22.5" height="15.1" xlink:href="./link/4C060F6F.png"  transform="matrix(1 0 0 1 893.353 741.4161)"/>
				</g>
			</g>
			<g>
				
					<linearGradient id="SVGID_00000095330195831818954480000006447628270257242545_" gradientUnits="userSpaceOnUse" x1="912.4246" y1="789.4285" x2="962.2698" y2="789.4285">
					<stop  offset="0" style="stop-color:#463427"/>
					<stop  offset="0.2" style="stop-color:#CCA92B"/>
					<stop  offset="0.4" style="stop-color:#9B6D39"/>
					<stop  offset="0.6" style="stop-color:#502617"/>
					<stop  offset="0.8" style="stop-color:#C7A12F"/>
					<stop  offset="1" style="stop-color:#332321"/>
				</linearGradient>
				<path style="fill:url(#SVGID_00000095330195831818954480000006447628270257242545_);" d="M920.4,755.4l-1.3,0.9l25.6,26.5
					L925,768.3l-7.1-11.2l-2.3,1.5l2.6,3.9l-4-3l-1.8,1.2l10.4,8l-6.8,24.1c0.8-0.2,1.7-0.4,2.7-0.6l5.4-21.2l19.9,26.2H933
					c0.4,0.7,0.7,1.5,1,2.3H944v6.5h-9.3c0,0.7-0.1,1.4-0.2,2h10.2l-9.4,15.2c1,0.2,2,0.2,3,0.1l9.4-15.3l14.5,0v-10.8L920.4,755.4z
					 M930,775l28.2,22.2h-10.6L930,775z M960.9,806.1h-14.1v-6.5h14.1V806.1z"/>
				<g>
					<g>
						
							<image style="overflow:visible;" width="50.2" height="68.3" xlink:href="./link/4C060F4D.png"  transform="matrix(1 0 0 1 912.2089 755.2774)"/>
					</g>
					<g>
						
							<image style="overflow:visible;" width="29.3" height="23.1" xlink:href="./link/4C060F72.png"  transform="matrix(1 0 0 1 929.2794 774.2625)"/>
					</g>
					<g>
						
							<image style="overflow:visible;" width="14.4" height="6.8" xlink:href="./link/4C060F4C.png"  transform="matrix(1 0 0 1 946.6248 799.4212)"/>
					</g>
				</g>
			</g>
			<g>
				
					<linearGradient id="SVGID_00000175301835189249326000000005237100674857028532_" gradientUnits="userSpaceOnUse" x1="760.2791" y1="838.3018" x2="774.9167" y2="838.3018">
					<stop  offset="0" style="stop-color:#463427"/>
					<stop  offset="0.2" style="stop-color:#CCA92B"/>
					<stop  offset="0.4" style="stop-color:#9B6D39"/>
					<stop  offset="0.6" style="stop-color:#502617"/>
					<stop  offset="0.8" style="stop-color:#C7A12F"/>
					<stop  offset="1" style="stop-color:#332321"/>
				</linearGradient>
				<path style="fill:url(#SVGID_00000175301835189249326000000005237100674857028532_);" d="M760.3,827.3l14,22.7
					c0.3-1.5,0.5-2.9,0.6-4l-12-19.4C762.1,826.8,761.2,827,760.3,827.3z"/>
				<g>
					
						<image style="overflow:visible;" width="15" height="23.9" xlink:href="./link/4C060F4E.png"  transform="matrix(1 0 0 1 760.0844 826.4408)"/>
				</g>
			</g>
			<g>
				
					<linearGradient id="SVGID_00000109742685068980448590000016085496896284616851_" gradientUnits="userSpaceOnUse" x1="749.7048" y1="844.4329" x2="772.7048" y2="844.4329">
					<stop  offset="0" style="stop-color:#463427"/>
					<stop  offset="0.2" style="stop-color:#CCA92B"/>
					<stop  offset="0.4" style="stop-color:#9B6D39"/>
					<stop  offset="0.6" style="stop-color:#502617"/>
					<stop  offset="0.8" style="stop-color:#C7A12F"/>
					<stop  offset="1" style="stop-color:#332321"/>
				</linearGradient>
				<path style="fill:url(#SVGID_00000109742685068980448590000016085496896284616851_);" d="M749.7,830.6l20.8,28.6
					c0.4-0.5,0.7-1,1-1.6l-2.2-3l2.2,2.8c0.4-0.7,0.8-1.5,1.1-2.2l-20.3-25.6C751.5,830,750.5,830.3,749.7,830.6z"/>
				<g>
					
						<image style="overflow:visible;" width="23.3" height="29.9" xlink:href="./link/4C060F4B.png"  transform="matrix(1 0 0 1 749.5026 829.5253)"/>
				</g>
			</g>
		</g>
		<g>
			<g>
				<path class="st19" d="M1005.6,668.3c0,4.8-2.5,10.7-7.6,17.5c-5,6.9-11.8,14.3-20.4,22.2c-8.6,8-18.4,16.2-29.6,24.6
					c-11.2,8.5-22.9,16.8-35.1,25.1c-12.2,8.3-24.5,16.2-36.9,23.7c-12.4,7.6-24,14.3-34.9,20.1c-12.3,15.1-22.4,28.4-30.2,39.9
					c3-3.2,6.2-6.5,9.7-10c3.4-3.4,6.9-6.5,10.4-9.2c3.5-2.7,7.1-4.9,10.6-6.7c3.5-1.7,6.8-2.6,9.8-2.6c3.4,0,5.7,1.3,6.8,3.9
					c1.1,2.6,2,5.4,2.6,8.5c0.6,3,1.4,5.8,2.4,8.5c1,2.6,3.2,3.9,6.7,3.9c1.8,0,3.9-0.6,6.2-1.8c2.3-1.2,4.9-2.7,7.7-4.5
					c4-2.8,8.2-6.1,12.4-9.8c4.2-3.7,8.1-7.2,11.5-10.4c0.2-0.2,0.7-0.7,1.4-1.5c0.7-0.8,1.4-1.7,2.1-2.6c0.7-0.9,1.5-1.7,2.3-2.4
					c0.8-0.7,1.4-1.1,1.8-1.1c1,0,1.5,0.6,1.5,1.8c-2.6,2.6-6,6-10.3,10.1c-4.2,4.1-8.8,8.2-13.8,12.1c-4.9,3.9-9.8,7.3-14.7,10.1
					c-4.8,2.8-9.2,4.2-13,4.2c-3.6,0-6.2-1.4-7.9-4.1c-1.6-2.7-2.8-5.7-3.6-8.9c-0.8-3.2-1.5-6.2-2-8.9c-0.5-2.7-1.5-4.1-2.9-4.1
					c-3.2,0-7.2,1.7-11.8,5c-4.6,3.3-9.3,7.2-13.9,11.6c-4.6,4.4-8.9,8.9-12.8,13.5c-3.9,4.5-6.8,8-8.6,10.4
					c-1.2,2.4-2.5,3.6-3.9,3.6c-1,0-2-0.4-2.9-1.2c-0.9-0.8-1.4-1.7-1.4-2.7c0-0.8,0.1-1.4,0.3-1.8c2.6-5,6.8-11.7,12.4-20
					c5.6-8.3,12.4-17.4,20.3-27.5c7.9-10.1,16.6-20.8,26.1-32c9.6-11.3,19.5-22.4,29.8-33.3c10.3-10.9,20.7-21.3,31.1-31.3
					c10.5-10,20.6-18.7,30.4-26.3c9.8-7.6,18.9-13.6,27.4-18.1c8.5-4.5,15.9-6.8,22.4-6.8c3.2,0,5.8,0.7,7.9,2
					C1003.4,662.5,1004.8,664.9,1005.6,668.3z M942.7,733.9c8.7-6.4,16.7-12.8,24-19.2c7.4-6.3,13.8-12.3,19.2-18
					c5.4-5.6,9.7-10.9,12.7-15.7c3-4.8,4.5-9.1,4.5-12.7c0-2.6-1-4.3-2.9-5.1c-1.9-0.8-3.8-1.2-5.6-1.2c-4.6,0.2-10.2,2.2-16.8,6
					c-6.6,3.8-13.7,8.8-21.5,14.8c-7.8,6-15.7,12.8-23.9,20.4c-8.2,7.6-16,15.1-23.4,22.5c-11.3,11.3-22.4,23.1-33.4,35.4
					c-11,12.3-21.3,24.2-31,35.7c7.7-4.2,15.6-8.8,23.9-13.6c8.3-4.8,16.6-10,25.1-15.4c8.5-5.4,16.8-11,25.1-16.6
					C927.1,745.5,935,739.8,942.7,733.9z"/>
				<path class="st19" d="M969.6,803.8c1,0,1.5,0.6,1.5,1.8c-5.8,7.1-11.9,12.4-18.1,16.2c-6.2,3.7-12.9,5.6-20,5.6
					c-1.8,0-3.6-0.1-5.4-0.3c-1.8-0.2-3.6-0.6-5.4-1.2c-2.2,2.2-4.6,4.1-7.3,5.7c-2.6,1.6-5.1,2.4-7.6,2.4c-1.8,0-3.3-0.6-4.5-1.7
					c-1.2-1.1-1.8-2.9-1.8-5.3c0-3.6,1.6-8.1,4.8-13.3c-0.4-0.2-0.6-0.7-0.6-1.5c0-0.8,0-1.4,0-1.8c0-4.2,1.7-7.8,5-10.6
					c3.3-2.8,7.1-4.2,11.3-4.2c3.4,0,6.1,0.9,8.2,2.7c2,1.8,3,4.2,3,7.3c0,3.4-0.9,6.7-2.7,9.8c-1.8,3.1-3.8,6-6,8.6
					c2.6,0.8,5.5,1.2,8.8,1.2c6.7,0,13-1.9,19-5.6C957.8,815.9,963.7,810.6,969.6,803.8z M913.4,829.8c1-0.6,2.1-1.3,3.2-2.1
					c1.1-0.8,2.2-1.7,3.2-2.7c-2-0.4-3.8-1.1-5.4-2c-1.6-0.9-3-1.9-4.2-2.9c-1,1.6-1.9,3.2-2.7,4.8c-0.8,1.6-1.2,3.2-1.2,4.8
					c0,1.4,0.6,2.1,1.8,2.1c1,0,2-0.3,3-0.8C912,830.6,912.8,830.2,913.4,829.8z M921.5,798c-3.8,0-7.1,1.2-9.8,3.5
					c-2.7,2.3-4.1,5.5-4.1,9.5c1.4-1.6,2.9-3.4,4.4-5.4c1.5-2,3.4-3,5.6-3c1,0,2.1,0.2,3.2,0.6c1.1,0.4,1.7,1.1,1.7,2.1
					c0,1.2-1.3,2.9-3.8,5c-2.5,2.1-4.9,4.8-7.1,8c1.2,1.2,2.8,2.2,4.7,3c1.9,0.8,3.7,1.4,5.3,1.8c2.2-2.2,4.3-4.9,6.2-8
					c1.9-3.1,2.9-6.2,2.9-9.2c0-2.8-0.8-4.8-2.4-6C926.6,798.6,924.3,798,921.5,798z"/>
				<path class="st19" d="M1041.5,803.8c1.2,0,1.8,0.5,1.8,1.5c-1.6,2.2-3.3,4.2-5,5.9c-1.7,1.7-3.6,3.4-5.6,5
					c-7.3,5.4-15.5,9.6-24.8,12.4c-6.2,1.8-12.8,3-19.7,3.6c-2.2,2-4.7,3.8-7.4,5.3c-2.7,1.5-5.5,2.3-8.3,2.3c-6,0-9.1-1.3-9.1-3.9
					c0-2.4,1.7-4,5-4.7c3.3-0.7,6.4-1.1,9.2-1.1c0.6,0,1.2,0.1,1.8,0.2c0.6,0.1,1.1,0.2,1.5,0.2h1.5c2.4-2.6,4.4-5.5,5.9-8.6
					c1.5-3.1,2.3-5.8,2.3-8c0-2.8-1.1-4.2-3.3-4.2c-1.6,0-3.6,0.7-6,2c-2.4,1.3-5,3-7.9,5.1c-2.8,2.1-5.6,4.4-8.5,6.8
					c-2.8,2.4-5.4,4.8-7.9,7.3l-40.8,56.2c-4,5.6-8.6,12-13.8,19.2c-5.1,7.2-10.5,14.5-16,22.1c-5.5,7.6-11.1,14.9-16.6,22.1
					c-5.5,7.2-10.8,13.6-15.7,19.2c-4.9,5.6-9.4,10.2-13.3,13.6c-3.9,3.4-7,5.1-9.2,5.1c-1.2,0-1.8-0.7-1.8-2.1
					c0-0.6,0.3-1.7,0.9-3.3c1.2-2.8,4-7.4,8.5-13.8c4.4-6.3,9.8-13.7,16-21.9c6.2-8.3,13.1-17.1,20.4-26.5
					c7.4-9.4,14.6-18.4,21.8-27.2c7.2-8.8,13.9-16.9,20.1-24.5c6.2-7.6,11.3-13.6,15.1-18c5.6-7.9,11.4-15.8,17.2-23.7
					c5.8-8,11.5-15.2,16.9-21.8c5.4-6.5,10.4-11.8,14.8-15.9c4.4-4,8-6,10.8-6c1.9,0,2.9,0.9,2.9,2.7c0,1.6-1.3,3.9-3.8,6.8
					c-2.6,2.9-7.1,6.1-13.5,9.5l-12.4,16.3c5.2-4.4,10-7.9,14.4-10.3c4.3-2.4,8-3.6,11-3.6c2.3,0,4,0.7,5.1,2.1
					c1.1,1.4,1.6,3.2,1.6,5.4c0,5.6-2.3,11.4-7,17.2c9.7-1,18.9-3.5,27.8-7.4C1027.4,818.4,1035.1,812.2,1041.5,803.8z M837.5,981.2
					c6.7-7.7,13.3-15.8,19.8-24.5c6.6-8.7,13.1-17.5,19.5-26.6c6.5-9.1,12.7-18.1,18.9-27.1c6.2-9,12.2-17.7,18.3-26.1
					c-5,5-10.5,11.2-16.5,18.6c-5.9,7.4-12,15.1-18.1,23.3c-6.1,8.2-12.1,16.2-17.8,24.2c-5.7,8-10.8,15.2-15.1,21.6
					c-4.3,6.4-7.8,11.6-10.4,15.6c-2.6,3.9-3.8,5.9-3.6,5.9c0.4,0,1.3-0.7,2.6-2.1C836.2,982.5,837.1,981.6,837.5,981.2z M969,837.3
					c3.6,0,7.3-1.5,10.9-4.5h-3c-1.4,0-3.5,0.2-6.3,0.5c-2.8,0.3-4.3,1.2-4.5,2.6C966,836.8,967,837.3,969,837.3z M990.8,788
					c-1,0.8-2.2,2-3.6,3.5c-1.4,1.5-2.9,3.2-4.5,5c1.4-0.8,3.4-2.1,5.9-3.8c2.5-1.7,3.8-3.7,3.8-5.9l-0.3,0.3
					c-0.2,0.2-0.4,0.4-0.6,0.5C991.2,787.7,991,787.8,990.8,788z"/>
			</g>
			<g>
				<path class="st19" d="M845.9,693.6c0-2.2-0.5-3.9-1.1-5.4c-2-3.9-6.5-5.5-12.5-5.5c-29.4,0-97.5,39.8-111.7,63.3
					c-1.4,2.3-2,4.6-2,6.9c0,20.3,48.4,42.7,62.5,62.1c14.5-4,42.4-12.8,59.9-16.8h0.3c0.9,0,1.4,0.5,1.4,1.1c0,0.6-0.5,1.2-1.2,1.4
					c-17.3,3.9-44.2,13.1-58.5,17c5.9,11.3,8.6,21.1,8.6,29.6c0,21-16.8,33.8-42,41.6c-17.9,5.4-36.2,8-51.8,8
					c-24.6,0-42.8-6.3-42.8-17.3c0-3.9,2.2-8.5,7.4-13.4c14.2-14,41.6-29.6,102.3-47c-14.2-17.7-36.5-25.6-51.4-45.5
					c-4.6-5.7-7.7-12.3-7.7-19.1c0-7.7,4-16,14.2-23.9c21.9-18.2,80.4-50.6,111.8-50.6c8,0,14.2,2,17.7,7.1
					c2.6,3.9,3.9,8.2,3.9,12.8c0,23.4-29.9,54.1-46.5,55.3c-0.6,0.3-0.9,0.3-1.2,0.3c-0.6,0-0.8-0.3-0.8-0.6c0-0.5,0.3-1.1,0.9-1.5
					C819.1,748.5,845.9,711.5,845.9,693.6z M666.2,867.9c-4.6,4.5-6.6,8.2-6.6,11.4c0,8.5,14,12.8,32.3,12.8
					c34.7,0,84.6-15.1,84.6-45.5c0-7.1-2.6-15-8.9-23.7C706.9,840.3,680.2,854.2,666.2,867.9z"/>
			</g>
		</g>
		<g>
			<g>
				<path class="st19" d="M411.4,399.2c1.2,4.2,3.5,7.1,6.9,8.7c3.5,1.6,7.5,2.4,12.2,2.4c3.9,0,8-0.5,12.3-1.4
					c4.3-0.9,8.4-2,12.3-3.1c3.9-1.2,7.5-2.4,10.8-3.8c3.2-1.4,5.9-2.7,8-3.8c8.3-4.4,16.4-9.9,24.1-16.5c7.8-6.6,14.6-14,20.7-22.2
					c6-8.2,10.8-17.1,14.4-26.6c3.6-9.5,5.4-19.1,5.4-28.8c0-9.5-1.6-17.6-4.7-24.3c-3.1-6.7-7.4-12.2-12.7-16.3
					c-5.3-4.2-11.7-7.2-19.1-9.2c-7.4-2-15.4-3-24-3c-17.1,0-35,3-53.5,8.9c-18.5,5.9-37,14.1-55.4,24.7
					c-18.4,10.5-36.6,23-54.5,37.3c-17.9,14.4-34.9,29.9-50.9,46.5c-16,16.7-30.8,34.2-44.5,52.6c-13.7,18.4-25.4,37-35.3,55.8
					c-9.8,18.8-17.5,37.3-23.1,55.6c-5.6,18.3-8.3,35.7-8.3,52.1c0,20.6,4.9,36,14.8,46c9.8,10.1,23.9,15.1,42.2,15.1
					c16,0,34.2-3.4,54.7-10.1c20.5-6.7,41.9-15.5,64.3-26.4c22.3-10.9,44.9-23.2,67.6-37c22.7-13.8,44.3-27.8,65-42
					c20.6-14.2,39.4-28,56.3-41.3c16.9-13.3,30.7-25.1,41.3-35.3c3.7-3.5,6.9-6.7,9.7-9.7c0.7-0.7,1.2-1,1.4-1c0.9,0,1.4,0.3,1.4,1
					c0,0.5-0.1,0.8-0.3,1c-7.2,7.6-17.2,17-30,28.1c-12.9,11.1-27.7,22.9-44.6,35.4c-14.1,10.6-29.4,21.5-45.7,32.5
					c-16.3,11-33,21.7-50,32.1c-17,10.4-34.2,20.2-51.6,29.4c-17.4,9.1-34.3,17.1-50.7,24c-16.4,6.8-32.1,12.2-47.1,16.2
					c-14.9,3.9-28.5,5.9-40.8,5.9c-21.1,0-36.8-6.1-47.2-18.4c-10.4-12.3-15.6-30.1-15.6-53.5c0-16.9,2.8-34.7,8.3-53.3
					c5.6-18.6,13.3-37.4,23.3-56.3c10-18.9,21.7-37.5,35.3-55.9s28.4-35.9,44.5-52.5c16.1-16.6,33.1-32,51.1-46.2
					c17.9-14.2,36.2-26.5,54.7-36.8c18.5-10.3,37-18.4,55.6-24.3c18.5-5.9,36.5-8.9,53.8-8.9c9,0,17.7,1.1,25.9,3.3
					c8.2,2.2,15.5,5.6,21.7,10.2c6.3,4.6,11.2,10.5,14.8,17.5c3.6,7.1,5.4,15.5,5.4,25.2c0,10.7-1.7,21-5.2,31.1
					s-8.2,19.5-14.1,28.3c-5.9,8.8-12.9,16.8-21,24.1c-8.1,7.3-16.8,13.4-26.1,18.2c-2.1,1.2-4.9,2.4-8.3,3.8
					c-3.5,1.4-7.2,2.7-11.1,4c-3.9,1.3-8.1,2.3-12.5,3.1c-4.4,0.8-8.6,1.2-12.5,1.2c-2.3,0-4.8-0.2-7.5-0.7
					c-2.7-0.5-5.1-1.3-7.3-2.4c-2.2-1.2-4.1-2.7-5.6-4.5c-1.5-1.9-2.3-4.2-2.3-6.9c0-0.5,0.2-0.7,0.7-0.7
					C410.1,397.5,410.9,398.1,411.4,399.2z"/>
				<path class="st19" d="M649,444c1.4,0,2.1,0.6,2.1,1.7c-3.2,4.2-6.7,7.9-10.4,11.3c-3.7,3.4-7.6,6.3-11.8,8.9
					c-8.3,5.3-17.3,9.7-26.7,13c-9.5,3.4-18.9,6.9-28.1,10.6c-10.9,13.9-23.1,28.6-36.6,44.1C523.7,549.2,510,563.9,496,578
					c-14,14-27.9,26.3-41.7,37c-13.8,10.6-26.2,18.1-37.3,22.2c-1.6,0.5-3.5,1-5.6,1.6c-2.1,0.6-4.2,0.9-6.3,0.9
					c-2.5,0-4.7-0.7-6.6-2.1c-1.9-1.4-2.8-3.7-2.8-6.9c0.2-1.9,0.8-4.1,1.7-6.6c0.9-2.6,2.4-5.4,4.5-8.7
					c7.2-11.1,16.8-22.6,28.8-34.4c12-11.8,25.3-23.2,39.8-34.2c14.5-11,29.5-21.2,45-30.7c15.5-9.5,30.3-17.4,44.5-23.6
					c5.8-6.9,11.1-13.6,15.8-20c4.7-6.4,9.1-12.2,13-17.5c-2.3,1.4-4.9,3-7.8,4.9c-2.9,1.9-5.9,3.5-8.9,5c-3,1.5-5.9,2.8-8.5,3.8
					c-2.7,1-4.8,1.6-6.4,1.6c-4.2,0-6.3-2.2-6.3-6.6c0-1.6,0.5-3.6,1.6-6.1c1-2.4,2.3-4.7,3.6-6.9c1.4-2.2,2.9-4.1,4.5-5.7
					c1.6-1.6,3-2.4,4.2-2.4c1.2,0,2.3,0.3,3.3,0.9c1,0.6,1.6,1.4,1.6,2.6c0,0.7-0.8,2-2.3,3.8c-1.5,1.9-3.1,3.8-4.9,5.9
					c-1.7,2.1-3.3,4.1-4.7,6.1c-1.4,2-2.1,3.5-2.1,4.7c0,0.7,0.5,1,1.4,1c1.6,0,3.8-0.6,6.6-1.7c2.8-1.2,5.7-2.5,8.7-4.2
					c3-1.6,6-3.4,9-5.2c3-1.9,5.6-3.5,7.6-4.9l3.8-2.4c0.5,0,1.2-0.3,2.1-0.9c0.9-0.6,1.9-0.9,2.8-0.9c1.2,0,2.1,0.2,3,0.7
					c0.8,0.5,1.2,1.3,1.2,2.4c0,1.2-0.9,3.1-2.6,5.9c-1.7,2.8-3.9,5.8-6.4,9c-2.6,3.2-5.3,6.7-8.2,10.2c-2.9,3.6-5.5,6.9-7.8,9.9
					c5.3-2.1,10.7-4,16.2-5.9c5.4-1.9,10.8-3.9,16.2-6.3c4.2-1.9,8.3-3.9,12.3-6.1c4-2.2,7.9-4.7,11.6-7.5c3-2.3,5.8-4.7,8.3-7.1
					C644.2,450.1,646.7,447.3,649,444z M415.2,633.7c9-4.2,19.5-11.2,31.3-21c11.8-9.8,24-21.1,36.6-33.7
					c12.6-12.6,25.2-26.1,37.9-40.5c12.6-14.4,24.4-28.1,35.3-41.3c-13.2,6-27,13.5-41.3,22.4c-14.4,8.9-28.4,18.6-42,29
					c-8.6,6.7-17.3,13.9-26.2,21.5c-8.9,7.6-17,15.3-24.1,22.9c-7.2,7.6-13,14.9-17.5,21.7c-4.5,6.8-6.8,12.6-6.8,17.2
					c0,1.6,0.7,2.8,2.1,3.6c1.4,0.8,2.8,1.2,4.2,1.2c1.9,0,3.6-0.5,5.4-1.6C411.5,634.2,413.3,633.7,415.2,633.7z"/>
				<path class="st19" d="M705.9,444c1.6,0,2.4,0.3,2.4,1c0,0.2-0.1,0.4-0.2,0.5c-0.1,0.1-0.2,0.3-0.2,0.5
					c-6.9,7.6-13.3,13.7-19.1,18.2c-5.8,4.5-11.5,8.2-17,10.9c-5.6,2.8-11.1,5.1-16.5,6.9c-5.4,1.9-11.3,3.8-17.5,5.9
					c-3.9,9.7-8.5,18.2-13.7,25.4c-5.2,7.2-11.2,10.8-17.9,10.8c-3.5,0-5.9-0.8-7.3-2.4c-1.4-1.6-2.1-3.5-2.1-5.6
					c0-3.7,0.9-6.9,2.8-9.7c1.9-2.8,4.2-5.2,6.9-7.3c2.8-2.1,5.9-3.9,9.4-5.4c3.5-1.5,6.8-3,10.1-4.3l2.8-1
					c2.8-6.9,5.4-14.2,7.8-21.9s4.9-14.6,7.3-21c2.4-6.4,4.9-11.6,7.5-15.8c2.5-4.2,5.2-6.3,8-6.3c0.9,0,1.4,0.7,1.4,2.1
					c-1.4,1.2-2.8,3.7-4.3,7.6c-1.5,3.9-3.2,8.7-5,14.2c-1.9,5.6-3.8,11.6-5.9,18.2c-2.1,6.6-4.3,13-6.6,19.3
					c5.8-2.1,11.3-4,16.7-5.9c5.3-1.9,10.6-4.2,15.8-6.9c5.2-2.8,10.6-6.4,16.3-10.8C693.4,457,699.5,451.2,705.9,444z M605.2,521.2
					c4.4,0,8.4-2.8,12-8.3c3.6-5.6,7-12.5,10.2-20.8c-2.3,1.2-5,2.4-8.2,3.6c-3.1,1.3-6.1,2.8-9,4.7c-2.9,1.9-5.4,4.1-7.5,6.8
					c-2.1,2.7-3.1,5.7-3.1,9.2c0,3,1.4,4.6,4.2,4.9H605.2z"/>
				<path class="st19" d="M762.9,444c1.6,0,2.4,0.3,2.4,1c0,0.2-0.1,0.4-0.2,0.5c-0.1,0.1-0.2,0.3-0.2,0.5
					c-6.9,7.6-13.3,13.7-19.1,18.2c-5.8,4.5-11.5,8.2-17,10.9c-5.6,2.8-11.1,5.1-16.5,6.9c-5.4,1.9-11.3,3.8-17.5,5.9
					c-3.9,9.7-8.5,18.2-13.7,25.4c-5.2,7.2-11.2,10.8-17.9,10.8c-3.5,0-5.9-0.8-7.3-2.4c-1.4-1.6-2.1-3.5-2.1-5.6
					c0-3.7,0.9-6.9,2.8-9.7c1.9-2.8,4.2-5.2,6.9-7.3c2.8-2.1,5.9-3.9,9.4-5.4c3.5-1.5,6.8-3,10.1-4.3l2.8-1
					c2.8-6.9,5.4-14.2,7.8-21.9s4.9-14.6,7.3-21c2.4-6.4,4.9-11.6,7.5-15.8c2.5-4.2,5.2-6.3,8-6.3c0.9,0,1.4,0.7,1.4,2.1
					c-1.4,1.2-2.8,3.7-4.3,7.6c-1.5,3.9-3.2,8.7-5,14.2c-1.9,5.6-3.8,11.6-5.9,18.2c-2.1,6.6-4.3,13-6.6,19.3
					c5.8-2.1,11.3-4,16.7-5.9c5.3-1.9,10.6-4.2,15.8-6.9c5.2-2.8,10.6-6.4,16.3-10.8C750.3,457,756.4,451.2,762.9,444z M662.2,521.2
					c4.4,0,8.4-2.8,12-8.3c3.6-5.6,7-12.5,10.2-20.8c-2.3,1.2-5,2.4-8.2,3.6c-3.1,1.3-6.1,2.8-9,4.7c-2.9,1.9-5.4,4.1-7.5,6.8
					c-2.1,2.7-3.1,5.7-3.1,9.2c0,3,1.4,4.6,4.2,4.9H662.2z"/>
				<path class="st19" d="M820.6,444c0.5,0,0.9,0.2,1.4,0.5c0.5,0.3,0.7,0.9,0.7,1.6c-3.7,4.4-8,8.8-13,13.2
					c-5,4.4-10.4,8.4-16.2,12c-5.8,3.6-11.8,6.5-18.1,8.7c-6.3,2.2-12.4,3.3-18.4,3.3c-5.1,0-8.9-1.1-11.3-3.3
					c-2.4-2.2-3.6-5.3-3.6-9.2c0-2.3,0.7-5.2,2.1-8.7c1.4-3.5,3.1-6.7,5.2-9.7c2.1-3,4.3-5.6,6.8-7.8c2.4-2.2,4.6-3.3,6.4-3.3
					c1.2,0,2.1,0.2,3,0.7c0.8,0.5,1.2,1.3,1.2,2.4c0,0.9-0.9,2.5-2.8,4.7c-1.9,2.2-3.9,4.8-6.1,7.8c-2.2,3-4.3,6.1-6.3,9.2
					c-2,3.1-3,6.1-3,8.9c0,3.7,2.3,5.6,6.9,5.6c5.8,0,11.7-1,17.7-3.1c6-2.1,11.9-4.9,17.7-8.3c5.8-3.5,11.2-7.4,16.2-11.8
					C812.2,452.8,816.6,448.4,820.6,444z M776.5,431.2c-0.5-0.5-0.7-0.9-0.7-1.4c0-1.4,0.9-3,2.6-4.9c1.7-1.9,3.9-2.8,6.4-2.8
					c1.6,0,2.9,0.3,3.8,1c0.9,0.7,1.4,1.3,1.4,1.7c0,1.4-1.4,2.8-4.3,4.3c-2.9,1.5-5.4,2.3-7.5,2.3
					C777.3,431.5,776.7,431.4,776.5,431.2z"/>
				<path class="st19" d="M1287.1,253.3c0,1.4-0.8,2.1-2.4,2.1c-0.9,0-1.5-0.5-1.7-1.4c-2.3-5.8-5.9-10.5-10.8-14.2
					c-4.9-3.7-10.4-6.6-16.5-8.7c-6.1-2.1-12.7-3.5-19.6-4.3c-6.9-0.8-13.7-1.2-20.1-1.2c-20.4,0-43.1,2.6-68.3,7.6
					c-25.1,5.1-51.6,11.5-79.4,19.1c-27.8,7.6-56.3,16-85.5,25c-29.2,9-58.1,17.5-86.8,25.4c6,6.5,10.6,14.4,13.9,23.6
					c3.2,9.3,4.9,20.8,4.9,34.7c0,11.6-0.9,23.6-2.8,36.1c-1.9,12.5-4.5,25.2-7.8,38.2c-3.4,13-7.3,26-11.8,39.1
					c-4.5,13.1-9.6,26-15.1,38.7c12.3-14.6,25.1-29.4,38.6-44.5c13.4-15.1,26.5-29.9,39.3-44.5c12.7-14.6,24.8-28.7,36.3-42.4
					c11.5-13.7,21.5-26.4,30.2-38.2c8.7-11.8,15.6-22.4,20.7-31.8c5.1-9.4,7.6-17.2,7.6-23.4c0-0.9,0.5-1.4,1.4-1.4
					c0.9,0,1.4,0.5,1.4,1.4c0,8.8-2.9,19.1-8.7,30.7c-5.8,11.7-13.5,24.4-23.1,38c-9.6,13.7-20.8,28.1-33.5,43.4
					c-12.7,15.3-26.1,30.7-39.9,46.4c-13.9,15.6-27.9,31.2-42,46.7c-14.1,15.5-27.4,30.6-39.9,45.2c-8.1,16.7-16.4,32.4-25,47.1
					c-8.6,14.7-17.3,28.1-26.1,40.1c-3,3.9-5.5,7.1-7.5,9.4c-2,2.3-3.9,4.4-5.9,6.3c-2,1.9-3.4,2.8-4.3,2.8c-0.9,0-1.4-0.8-1.4-2.4
					c0-6.3,1.9-13.7,5.7-22.4c3.8-8.7,9.2-18.2,16-28.7c6.8-10.4,14.8-21.6,24-33.5c9.1-11.9,19.2-24.4,30-37.3
					c5.8-13.2,11.2-26.6,16.2-40.3c5-13.7,9.3-27.2,13-40.6c3.7-13.4,6.6-26.7,8.7-39.8c2.1-13.1,3.1-25.8,3.1-38
					c0-13.7-1.6-25.1-4.9-34.4c-3.2-9.3-8-17-14.2-23.3c-23.9,6.5-47,12.2-69.5,17.2c-22.5,5-43.9,8.4-64.3,10.2
					c-6.7,0.7-12.5,1-17.4,1c-8.3,0-14.5-0.8-18.4-2.4c-3.9-1.6-6-3.7-6.3-6.3c0-3.7,3.4-8,10.1-13c6.7-5,15.5-9.7,26.2-14.1
					c10.8-4.4,22.9-8.2,36.5-11.3c13.5-3.1,27.3-4.7,41.2-4.7c11.3,0,22.2,1.3,32.7,4c10.4,2.7,19.6,7.2,27.4,13.7
					c26.6-8.1,53.6-16.7,80.9-25.9c27.3-9.1,54.5-17.5,81.5-25.2c27-7.6,53.5-14,79.5-19.1c26.1-5.1,51.1-7.6,75.2-7.6
					c7.6,0,15.5,0.4,23.6,1.2c8.1,0.8,15.8,2.4,23.1,4.7c7.3,2.3,13.8,5.6,19.5,9.7c5.7,4.2,9.9,9.6,12.7,16.3V253.3z M758.7,328.4
					c20.1-1.9,41-5.4,62.5-10.8c21.5-5.3,43.8-11.5,66.7-18.4c-7.4-5.8-16-9.9-25.9-12.3c-9.8-2.4-20.2-3.6-31.1-3.6
					c-13,0-26,1.5-39.1,4.5c-13.1,3-25,6.6-35.8,10.8c-10.8,4.2-19.5,8.5-26.2,13c-6.7,4.5-10.1,8.4-10.1,11.6
					c0,1.9,1.5,3.4,4.5,4.5c3,1.2,8.2,1.7,15.6,1.7C745.1,329.4,751.3,329.1,758.7,328.4z M812.2,624.3c7.6-10.9,15.4-22.9,23.3-36
					c7.9-13.1,15.5-26.9,22.9-41.5c-17.4,20.4-31.7,38.7-42.9,55.1c-11.2,16.3-17.1,29.6-17.5,39.8c2.6-3,4.6-5.5,6.3-7.5
					c1.6-2,3.2-3.9,4.9-5.9C810.7,626.4,811.8,625,812.2,624.3z"/>
				<path class="st19" d="M1098.8,444c1.2,0,1.7,0.7,1.7,2.1c-3.5,3.7-7.7,8-12.7,12.9c-5,4.9-10.4,9.4-16.2,13.7
					c-5.8,4.3-11.8,7.9-17.9,10.9c-6.1,3-11.9,4.5-17.2,4.5c-3.2,0-6.2-0.9-8.9-2.8c-2.7-1.9-4-5.1-4-9.7c0-5.3,1-10.8,3.1-16.3
					c-4.6,4.2-9.4,8-14.2,11.5c-4.9,3.5-8.7,5.2-11.5,5.2c-1.6,0-3.2-0.4-4.7-1.2c-1.5-0.8-2.3-2.5-2.3-5c0-2.8,0.9-5.8,2.6-9
					c1.7-3.2,3.9-6.3,6.6-9.2c2.7-2.9,5.5-5.3,8.5-7.1c3-1.9,5.9-2.8,8.7-2.8c2.5,0,4.8,0.7,6.8,2.1c2,1.4,3.5,2.9,4.7,4.5
					c1.2-1.4,2.2-2.8,3.1-4.2c0.9-1.4,2.5-2.1,4.9-2.1c0.9,0,1.8,0.2,2.6,0.7c0.8,0.5,1.2,1.3,1.2,2.4c0,0.7-0.8,2.4-2.3,5
					c-1.5,2.7-3.1,5.7-4.9,9.2c-1.7,3.5-3.3,7-4.7,10.6c-1.4,3.6-2.1,6.8-2.1,9.6c0,2.3,0.7,3.9,2.1,4.7c1.4,0.8,2.9,1.2,4.5,1.2
					c4.9,0,10.2-1.5,16.2-4.5c5.9-3,11.8-6.7,17.5-10.9c5.8-4.3,11.2-8.8,16.2-13.5C1091.5,451.6,1095.6,447.5,1098.8,444z
					 M1031.1,450.6c-0.7-0.7-1.8-1.8-3.3-3.3c-1.5-1.5-2.8-2.3-4-2.3c-1.4,0-3.5,1-6.3,3.1s-5.6,4.5-8.3,7.3
					c-2.8,2.8-5.2,5.6-7.3,8.5c-2.1,2.9-3.1,5.2-3.1,6.8c0,1.4,0.7,2.1,2.1,2.1c1.4,0,3.4-0.7,5.9-2.1c2.5-1.4,5.2-3.2,8-5.4
					c2.8-2.2,5.6-4.6,8.5-7.1C1026.2,455.7,1028.8,453.2,1031.1,450.6z"/>
				<path class="st19" d="M1424.7,354.1c0.7-1.9,1.7-2.8,3.1-2.8c1.2,0,2.3,0.5,3.3,1.4c1,0.9,1.6,2.2,1.6,3.8c0,3.2-1.5,6-4.5,8.3
					c-3,2.3-6.9,4.2-11.6,5.7c-4.8,1.5-10.1,2.6-16.2,3.3c-6,0.7-12,1-18.1,1c-11.6,0-24.2-0.7-37.9-2.3c-13.7-1.5-28-3.5-43.1-6.1
					c-8.6,6.9-17.3,13.8-26.1,20.5c-8.8,6.7-17.5,13.2-26.1,19.5c-8.6,6.3-16.8,12.2-24.8,17.7c-8,5.6-15.5,10.5-22.4,14.9
					c-12,15.5-21.8,29.8-29.4,42.9c-7.5,13.1-11.3,23.8-11.3,32.1c0,3.5,0.5,6.8,1.6,10.1c1,3.2,2.8,6.1,5.4,8.7
					c0,0.2,0.1,0.4,0.2,0.5c0.1,0.1,0.2,0.3,0.2,0.5c0,0.9-0.5,1.4-1.4,1.4c-0.2,0-0.6-0.2-1-0.7c-5.3-5.8-8-12.9-8-21.2
					c0-6.9,1.7-15.1,5.2-24.3c3.5-9.3,8.6-19.3,15.3-30.2c-6.5,5.8-14,11.8-22.4,17.9c-8.5,6.1-17.1,11.8-25.9,17
					c-8.8,5.2-17.5,9.5-26.1,12.9c-8.6,3.4-16.2,5-22.9,5c-8.6,0-12.9-3.9-12.9-11.8c0-7.4,3.2-16.9,9.6-28.5
					c6.4-11.6,14.8-24.2,25.2-37.9c10.4-13.7,22.4-27.9,36-42.7c13.5-14.8,27.5-29.2,41.9-43.1c-7.6-0.9-15-1.6-22.1-2.1
					c-7.1-0.5-13.8-0.7-20.3-0.7c-16,0-29.2,1.9-39.8,5.6c-10.5,3.7-17.2,10.2-20,19.5c-0.7,2.1-1.7,3.1-3.1,3.1
					c-3,0-4.5-1.7-4.5-5.2c0-2.1,0.8-4,2.4-5.9c6.7-7.4,15.9-12.5,27.4-15.3c11.6-2.8,25-4.2,40.3-4.2c6.7,0,13.6,0.2,20.7,0.7
					c7.1,0.5,14.3,1,21.7,1.7c11.1-10.6,22-20.4,32.7-29.4c10.6-8.9,20.6-16.7,29.9-23.3c9.3-6.6,17.4-11.8,24.5-15.5
					c7.1-3.7,12.7-5.6,16.8-5.6c2.3,0,4.3,0.6,5.9,1.7c1.6,1.2,2.4,3.1,2.4,5.9c0,3.5-2,7.9-5.9,13.4c-3.9,5.4-9.1,11.3-15.5,17.7
					c-6.4,6.4-13.5,13.1-21.5,20.3c-8,7.2-16.2,14.2-24.5,21.2l33.7,5.6c12.5-12.5,24.7-24,36.6-34.4c11.9-10.4,23-19.5,33.3-27.1
					c10.3-7.6,19.5-13.6,27.6-17.9c8.1-4.3,14.5-6.4,19.1-6.4c1.9,0,3.5,0.4,4.9,1.2c1.4,0.8,2.1,2.4,2.1,4.7
					c0,3.9-2.4,9.2-7.1,15.6c-4.7,6.5-10.9,13.6-18.6,21.4c-7.6,7.8-16.4,16-26.2,24.7c-9.8,8.7-19.9,17.2-30,25.5
					c14.4,2.6,28,4.6,40.8,6.3c12.9,1.6,24.5,2.4,34.9,2.4c12.3,0,22.3-1.4,30.2-4.3C1417.9,365.9,1422.8,361,1424.7,354.1z
					 M1081.8,509c7.2,0,15.5-2,24.8-6.1c9.4-4,18.9-9,28.5-14.9c9.6-5.9,18.8-12.3,27.4-19.1c8.7-6.8,16-13.1,22.1-18.9
					c9.7-14.6,21.1-29.6,34.2-45.2c13.1-15.5,26.8-30.6,41.2-45.2l-34.4-5.6c-9.5,7.6-19.2,15.3-29.2,23.1
					c-10,7.8-19.9,15.2-29.7,22.4c-9.8,7.2-19.5,14-29,20.5c-9.5,6.5-18.4,12.4-26.7,17.7c-11.6,14.4-21,27.2-28.1,38.6
					c-7.2,11.3-10.8,19.8-10.8,25.4c0,4.9,2.4,7.3,7.3,7.3H1081.8z M1192.3,349.2c-13.2,13.2-26.3,26.8-39.4,40.8
					c-13.1,14-25.2,27.6-36.3,40.8c16-10.4,33.2-22.4,51.8-36c18.5-13.5,36.5-27.4,53.8-41.5L1192.3,349.2z M1285.4,274.2
					c-3.5,0.7-8.3,3.1-14.6,7.1c-6.3,4.1-13.3,9.3-21.2,15.6c-7.9,6.4-16.5,13.8-25.9,22.2c-9.4,8.5-18.9,17.5-28.7,27.3
					c4.9,0.7,9.8,1.4,14.8,2.1c5,0.7,10.1,1.5,15.5,2.4c8.1-6.7,16.2-13.6,24.1-20.7c8-7.1,15.2-13.8,21.5-20.3
					c6.4-6.5,11.6-12.3,15.8-17.5c4.2-5.2,6.4-9.4,6.6-12.7c0-3.7-1.9-5.6-5.6-5.6H1285.4z M1207.2,432.6
					c13.2-8.8,27.7-18.9,43.6-30.4c15.9-11.5,31.6-23.4,47.1-36c-4.4-0.9-8.8-1.7-13.2-2.4c-4.4-0.7-8.9-1.4-13.5-2.1
					c-11.3,11.6-22.5,23.3-33.3,35.3C1226.9,408.9,1216.7,420.8,1207.2,432.6z M1372.6,276.3c-4.6,2.1-10.5,5.7-17.5,10.9
					c-7.1,5.2-14.9,11.5-23.6,18.8c-8.7,7.3-18,15.5-28,24.7c-10,9.2-19.9,18.7-29.9,28.7c4.6,0.9,9.1,1.7,13.5,2.4
					c4.4,0.7,8.9,1.4,13.5,2.1c10-7.9,19.9-16.2,29.7-24.8c9.8-8.7,18.7-16.9,26.6-24.7c7.9-7.8,14.2-14.9,19.1-21.4
					c4.9-6.5,7.3-11.6,7.3-15.3c0-2.5-1.2-3.8-3.5-3.8c-1.2,0-2.4,0.3-3.8,0.9C1374.6,275.3,1373.5,275.8,1372.6,276.3z"/>
				<path class="st19" d="M1312.1,444c1.2,0,1.7,0.7,1.7,2.1c-6.7,8.1-13.7,14.3-20.8,18.6c-7.2,4.3-14.8,6.4-22.9,6.4
					c-2.1,0-4.2-0.1-6.3-0.3c-2.1-0.2-4.2-0.7-6.3-1.4c-2.6,2.6-5.3,4.7-8.3,6.6c-3,1.9-5.9,2.8-8.7,2.8c-2.1,0-3.8-0.6-5.2-1.9
					c-1.4-1.3-2.1-3.3-2.1-6.1c0-4.2,1.9-9.3,5.6-15.3c-0.5-0.2-0.7-0.8-0.7-1.7c0-0.9,0-1.6,0-2.1c0-4.9,1.9-8.9,5.7-12.2
					c3.8-3.2,8.2-4.9,13-4.9c3.9,0,7.1,1,9.4,3.1c2.3,2.1,3.5,4.9,3.5,8.3c0,3.9-1,7.7-3.1,11.3c-2.1,3.6-4.4,6.9-6.9,9.9
					c3,0.9,6.4,1.4,10.1,1.4c7.6,0,14.9-2.1,21.9-6.4C1298.6,458,1305.4,451.9,1312.1,444z M1247.5,473.9c1.2-0.7,2.4-1.5,3.6-2.4
					c1.3-0.9,2.5-2,3.6-3.1c-2.3-0.5-4.4-1.2-6.3-2.3c-1.9-1-3.5-2.1-4.9-3.3c-1.2,1.9-2.2,3.7-3.1,5.6c-0.9,1.9-1.4,3.7-1.4,5.6
					c0,1.6,0.7,2.4,2.1,2.4c1.2,0,2.3-0.3,3.5-0.9C1245.9,474.9,1246.8,474.4,1247.5,473.9z M1256.9,437.4c-4.4,0-8.2,1.3-11.3,4
					c-3.1,2.7-4.7,6.3-4.7,10.9c1.6-1.9,3.3-3.9,5-6.3c1.7-2.3,3.9-3.5,6.4-3.5c1.2,0,2.4,0.2,3.6,0.7c1.3,0.5,1.9,1.3,1.9,2.4
					c0,1.4-1.4,3.3-4.3,5.7c-2.9,2.4-5.6,5.5-8.2,9.2c1.4,1.4,3.2,2.6,5.4,3.5c2.2,0.9,4.2,1.6,6.1,2.1c2.5-2.5,4.9-5.6,7.1-9.2
					c2.2-3.6,3.3-7.1,3.3-10.6c0-3.2-0.9-5.6-2.8-6.9C1262.7,438.1,1260.1,437.4,1256.9,437.4z"/>
				<path class="st19" d="M1375.3,444c1.2,0,1.7,0.7,1.7,2.1c-6.7,8.1-13.7,14.3-20.8,18.6c-7.2,4.3-14.8,6.4-22.9,6.4
					c-2.1,0-4.2-0.1-6.3-0.3c-2.1-0.2-4.2-0.7-6.3-1.4c-2.6,2.6-5.3,4.7-8.3,6.6c-3,1.9-5.9,2.8-8.7,2.8c-2.1,0-3.8-0.6-5.2-1.9
					c-1.4-1.3-2.1-3.3-2.1-6.1c0-4.2,1.9-9.3,5.6-15.3c-0.5-0.2-0.7-0.8-0.7-1.7c0-0.9,0-1.6,0-2.1c0-4.9,1.9-8.9,5.7-12.2
					c3.8-3.2,8.2-4.9,13-4.9c3.9,0,7.1,1,9.4,3.1c2.3,2.1,3.5,4.9,3.5,8.3c0,3.9-1,7.7-3.1,11.3c-2.1,3.6-4.4,6.9-6.9,9.9
					c3,0.9,6.4,1.4,10.1,1.4c7.6,0,14.9-2.1,21.9-6.4C1361.8,458,1368.6,451.9,1375.3,444z M1310.7,473.9c1.2-0.7,2.4-1.5,3.6-2.4
					c1.3-0.9,2.5-2,3.6-3.1c-2.3-0.5-4.4-1.2-6.3-2.3c-1.9-1-3.5-2.1-4.9-3.3c-1.2,1.9-2.2,3.7-3.1,5.6c-0.9,1.9-1.4,3.7-1.4,5.6
					c0,1.6,0.7,2.4,2.1,2.4c1.2,0,2.3-0.3,3.5-0.9C1309.1,474.9,1310,474.4,1310.7,473.9z M1320.1,437.4c-4.4,0-8.2,1.3-11.3,4
					c-3.1,2.7-4.7,6.3-4.7,10.9c1.6-1.9,3.3-3.9,5-6.3c1.7-2.3,3.9-3.5,6.4-3.5c1.2,0,2.4,0.2,3.6,0.7c1.3,0.5,1.9,1.3,1.9,2.4
					c0,1.4-1.4,3.3-4.3,5.7c-2.9,2.4-5.6,5.5-8.2,9.2c1.4,1.4,3.2,2.6,5.4,3.5c2.2,0.9,4.2,1.6,6.1,2.1c2.5-2.5,4.9-5.6,7.1-9.2
					c2.2-3.6,3.3-7.1,3.3-10.6c0-3.2-0.9-5.6-2.8-6.9C1325.9,438.1,1323.3,437.4,1320.1,437.4z"/>
			</g>
		</g>
	</g>
</g>
<g id="Calque_2">
</g>
</svg>
